<?xml version="1.0" encoding="utf-8"?>
<!-- Generator: Adobe Illustrator 24.1.1, SVG Export Plug-In . SVG Version: 6.00 Build 0)  -->
<svg version="1.1" id="Calque_1" xmlns="http://www.w3.org/2000/svg" xmlns:xlink="http://www.w3.org/1999/xlink" x="0px" y="0px"
	 viewBox="0 0 300 300" style="enable-background:new 0 0 300 300;" xml:space="preserve">
<style type="text/css">
	.st0{fill:#BFBFBF;}
	.st1{fill:#4D4D4D;}
	.st2{fill:url(#SVGID_1_);}
	.st3{fill:url(#SVGID_2_);}
	.st4{fill:url(#SVGID_3_);}
	.st5{fill:url(#SVGID_4_);}
	.st6{fill:url(#SVGID_5_);}
	.st7{fill:url(#SVGID_6_);}
	.st8{fill:url(#SVGID_7_);}
	.st9{fill:url(#SVGID_8_);}
	.st10{fill:url(#SVGID_9_);}
	.st11{fill:url(#SVGID_10_);}
	.st12{fill:url(#SVGID_11_);}
</style>
<g>
	<path class="st0" d="M122.7,250.7h-19c-3.5,0-4.7,0-7.2,0c-14.4,0-26.1-11.7-26.1-26.1c0-14.6,11.7-26.3,26.1-26.3
		c14.6,0,26.3,11.7,26.3,26.3c0,6.3-2.7,11.4-6.4,15.4l6.4,0L122.7,250.7z M81,224.6c0,8.4,7,15.2,15.4,15.2
		c8.6,0,15.3-6.8,15.3-15.2c0-8.6-6.8-15.3-15.3-15.3C88,209.2,81,216,81,224.6z"/>
	<path class="st0" d="M169.7,231.2c0,13.9-8.2,20.6-21.9,20.6c-13.9,0-21.9-6.6-21.9-20.6v-31.9h11.3v31.9c0,5.6,1.4,11.1,10.6,11.1
		c8.1,0,10.6-3.4,10.6-11.1v-31.9h11.3V231.2z"/>
	<path class="st0" d="M170.9,250.7l23.3-51.3h11.4l23,51.3h-10.9l-5-11.4h-26l-5.4,11.4H170.9z M200.1,209l-8.6,19.9h17.1L200.1,209
		L200.1,209z"/>
	<path class="st0" d="M230.3,199.3h11.3v51.4h-11.3V199.3z"/>
</g>
<g>
	<path class="st1" d="M76.2,299h-2.1l6.8-44.3h2.5l7.1,44.3h-2.1l-6.2-40L76.2,299z"/>
	<path class="st1" d="M114.3,254.7h1.9v42.2h11.1v2.1h-13.1V254.7z"/>
	<path class="st1" d="M151.3,254.7h7.1c0.4,0,0.9,0.2,1.5,0.7c0.6,0.5,1.3,1.2,1.9,2.2c0.6,1,1.2,2.3,1.6,3.8
		c0.5,1.5,0.7,3.3,0.7,5.4c0,2.1-0.2,4-0.5,5.6c-0.4,1.6-0.8,2.9-1.4,3.9c-0.6,1-1.2,1.8-1.9,2.3c-0.7,0.5-1.3,0.8-2,0.8h-5.1V299
		h-1.9V254.7z M157.5,277.3c1.1,0,1.9-0.3,2.4-1c0.6-0.7,1-1.5,1.3-2.6c0.3-1,0.5-2.2,0.6-3.4c0.1-1.2,0.2-2.4,0.4-3.4
		c-0.1-1.2-0.2-2.4-0.4-3.6c-0.2-1.2-0.5-2.3-0.9-3.3c-0.4-1-0.9-1.8-1.5-2.4c-0.6-0.6-1.4-0.9-2.4-0.9h-3.8v20.5H157.5z"/>
	<path class="st1" d="M189.9,299H188v-44.3h1.9v20.4h9v-20.4h1.9V299h-1.9v-21.8h-9V299z"/>
	<path class="st1" d="M226.9,299h-2.1l6.8-44.3h2.5l7.1,44.3H239l-6.2-40L226.9,299z"/>
</g>
<linearGradient id="SVGID_1_" gradientUnits="userSpaceOnUse" x1="104.9569" y1="124.427" x2="170.7939" y2="124.427">
	<stop  offset="0" style="stop-color:#E14277"/>
	<stop  offset="0.2578" style="stop-color:#E14277"/>
	<stop  offset="0.2673" style="stop-color:#E14277"/>
	<stop  offset="0.2762" style="stop-color:#DF4176"/>
	<stop  offset="0.4633" style="stop-color:#C2336D"/>
	<stop  offset="0.6484" style="stop-color:#AD2866"/>
	<stop  offset="0.829" style="stop-color:#A02262"/>
	<stop  offset="1" style="stop-color:#9C2061"/>
</linearGradient>
<polygon class="st2" points="126.8,84.7 170.8,112.6 137.9,138.3 105,164.1 115.9,124.4 "/>
<linearGradient id="SVGID_2_" gradientUnits="userSpaceOnUse" x1="160.5026" y1="118.4608" x2="228.03" y2="50.9334">
	<stop  offset="0" style="stop-color:#E14277"/>
	<stop  offset="0.2578" style="stop-color:#E14277"/>
	<stop  offset="0.2673" style="stop-color:#E14277"/>
	<stop  offset="0.2762" style="stop-color:#DF4176"/>
	<stop  offset="0.4633" style="stop-color:#C2336D"/>
	<stop  offset="0.6484" style="stop-color:#AD2866"/>
	<stop  offset="0.829" style="stop-color:#A02262"/>
	<stop  offset="1" style="stop-color:#9C2061"/>
</linearGradient>
<polyline class="st3" points="238.3,61.2 229.7,107.6 211.1,135.4 170.8,112.6 126.8,84.7 238.3,61.2 "/>
<linearGradient id="SVGID_3_" gradientUnits="userSpaceOnUse" x1="73.1957" y1="127.8413" x2="63.6072" y2="144.4492">
	<stop  offset="0" style="stop-color:#E14277"/>
	<stop  offset="0.2635" style="stop-color:#E14277"/>
	<stop  offset="0.3069" style="stop-color:#E14277"/>
	<stop  offset="0.4421" style="stop-color:#D13A72"/>
	<stop  offset="0.8081" style="stop-color:#AB2766"/>
	<stop  offset="1" style="stop-color:#9C2061"/>
</linearGradient>
<polygon class="st4" points="91.7,138.5 86,147.4 81.2,154.6 65.1,140.1 50.5,124.3 71.1,131.4 "/>
<linearGradient id="SVGID_4_" gradientUnits="userSpaceOnUse" x1="114.5276" y1="185.3236" x2="101.9344" y2="163.5117">
	<stop  offset="0" style="stop-color:#E14277"/>
	<stop  offset="0.5941" style="stop-color:#E14277"/>
	<stop  offset="0.6963" style="stop-color:#CF3971"/>
	<stop  offset="1" style="stop-color:#9C2061"/>
</linearGradient>
<polygon class="st5" points="105,164.1 116.5,155.1 115.3,167.7 107.7,180.7 100,193.7 102.6,178.9 "/>
<linearGradient id="SVGID_5_" gradientUnits="userSpaceOnUse" x1="217.8243" y1="157.7081" x2="200.7505" y2="128.1355">
	<stop  offset="0" style="stop-color:#E14277"/>
	<stop  offset="0.2578" style="stop-color:#E14277"/>
	<stop  offset="0.2673" style="stop-color:#E14277"/>
	<stop  offset="0.2762" style="stop-color:#DF4176"/>
	<stop  offset="0.4633" style="stop-color:#C2336D"/>
	<stop  offset="0.6484" style="stop-color:#AD2866"/>
	<stop  offset="0.829" style="stop-color:#A02262"/>
	<stop  offset="1" style="stop-color:#9C2061"/>
</linearGradient>
<polygon class="st6" points="198.6,132.8 199.5,128.8 211.1,135.4 211.5,145.4 213.2,160.4 206.4,146.9 "/>
<linearGradient id="SVGID_6_" gradientUnits="userSpaceOnUse" x1="164.7276" y1="94.9348" x2="221.4156" y2="151.6229">
	<stop  offset="0" style="stop-color:#E14277"/>
	<stop  offset="0.2578" style="stop-color:#E14277"/>
	<stop  offset="0.2673" style="stop-color:#E14277"/>
	<stop  offset="0.2762" style="stop-color:#DF4176"/>
	<stop  offset="0.4633" style="stop-color:#C2336D"/>
	<stop  offset="0.6484" style="stop-color:#AD2866"/>
	<stop  offset="0.829" style="stop-color:#A02262"/>
	<stop  offset="1" style="stop-color:#9C2061"/>
</linearGradient>
<polygon class="st7" points="181.8,124.8 187.8,71.8 211.4,92.4 194.6,149.6 196.8,176.2 189.3,150.5 "/>
<linearGradient id="SVGID_7_" gradientUnits="userSpaceOnUse" x1="124.4336" y1="168.9808" x2="165.0247" y2="128.3897">
	<stop  offset="0" style="stop-color:#E14277"/>
	<stop  offset="0.4821" style="stop-color:#E14277"/>
	<stop  offset="0.5" style="stop-color:#E14277"/>
	<stop  offset="0.5061" style="stop-color:#DF4176"/>
	<stop  offset="0.6338" style="stop-color:#C2336D"/>
	<stop  offset="0.7601" style="stop-color:#AD2866"/>
	<stop  offset="0.8833" style="stop-color:#A02262"/>
	<stop  offset="1" style="stop-color:#9C2061"/>
</linearGradient>
<polygon class="st8" points="139.7,137 158.7,122.1 159.8,130.6 146.3,154 132.8,177.4 137.3,150.9 "/>
<linearGradient id="SVGID_8_" gradientUnits="userSpaceOnUse" x1="94.5519" y1="103.313" x2="122.2558" y2="151.2975">
	<stop  offset="0" style="stop-color:#E14277"/>
	<stop  offset="0.4821" style="stop-color:#E14277"/>
	<stop  offset="0.5" style="stop-color:#E14277"/>
	<stop  offset="0.5061" style="stop-color:#DF4176"/>
	<stop  offset="0.6338" style="stop-color:#C2336D"/>
	<stop  offset="0.7601" style="stop-color:#AD2866"/>
	<stop  offset="0.8833" style="stop-color:#A02262"/>
	<stop  offset="1" style="stop-color:#9C2061"/>
</linearGradient>
<polygon class="st9" points="100.5,163.9 90.8,159.3 81.2,154.6 104,119.8 126.8,84.7 113.9,124.4 "/>
<linearGradient id="SVGID_9_" gradientUnits="userSpaceOnUse" x1="206.8468" y1="81.824" x2="231.598" y2="38.9536">
	<stop  offset="0" style="stop-color:#E14277"/>
	<stop  offset="0.2578" style="stop-color:#E14277"/>
	<stop  offset="0.2673" style="stop-color:#E14277"/>
	<stop  offset="0.2762" style="stop-color:#DF4176"/>
	<stop  offset="0.4633" style="stop-color:#C2336D"/>
	<stop  offset="0.6484" style="stop-color:#AD2866"/>
	<stop  offset="0.829" style="stop-color:#A02262"/>
	<stop  offset="1" style="stop-color:#9C2061"/>
</linearGradient>
<polygon class="st10" points="236.7,86.2 206.8,77 182.5,67.8 199.9,50 238.3,42.8 238.3,61.2 "/>
<linearGradient id="SVGID_10_" gradientUnits="userSpaceOnUse" x1="213.3924" y1="22.3739" x2="236.8092" y2="45.7907">
	<stop  offset="0" style="stop-color:#E14277"/>
	<stop  offset="0.4123" style="stop-color:#E14277"/>
	<stop  offset="0.4802" style="stop-color:#E14277"/>
	<stop  offset="0.6171" style="stop-color:#D53C73"/>
	<stop  offset="0.862" style="stop-color:#B62B68"/>
	<stop  offset="1" style="stop-color:#A22061"/>
</linearGradient>
<path class="st11" d="M240.3,5.6L235.8,0l-20.5,24.3l-20.5,24.3l23.9,6.9L241,41.6L240.3,5.6z M219.5,30.5l-3.6,1.4l0.7-4.3l5.5-4.6
	L219.5,30.5z"/>
<linearGradient id="SVGID_11_" gradientUnits="userSpaceOnUse" x1="181.9195" y1="146.3703" x2="194.96" y2="119.3815" gradientTransform="matrix(1.0367 0.4263 -9.700000e-02 1.2416 13.585 -203.4019)">
	<stop  offset="0" style="stop-color:#E14277"/>
	<stop  offset="0.2772" style="stop-color:#E14277"/>
	<stop  offset="0.3089" style="stop-color:#DD4076"/>
	<stop  offset="0.5956" style="stop-color:#BD2E6A"/>
	<stop  offset="0.8362" style="stop-color:#A92463"/>
	<stop  offset="1" style="stop-color:#A22061"/>
</linearGradient>
<polyline class="st12" points="208.5,32.4 199.9,50 188.7,51.9 182.6,50.3 "/>
</svg>
