<?xml version="1.0" encoding="utf-8"?>
<!-- Generator: Adobe Illustrator 24.1.1, SVG Export Plug-In . SVG Version: 6.00 Build 0)  -->
<svg version="1.1" id="Calque_1" xmlns="http://www.w3.org/2000/svg" xmlns:xlink="http://www.w3.org/1999/xlink" x="0px" y="0px"
	 viewBox="0 0 300 300" style="enable-background:new 0 0 300 300;" xml:space="preserve">
<style type="text/css">
	.st0{fill:#FFFFFF;}
</style>
<g>
	<path class="st0" d="M116.3,250.6H97.8c-3.4,0-4.6,0-7.1,0c-14,0-25.5-11.4-25.5-25.5c0-14.2,11.4-25.6,25.5-25.6
		c14.2,0,25.6,11.4,25.6,25.6c0,6.2-2.6,11.2-6.3,15l6.2,0L116.3,250.6z M75.7,225.2c0,8.2,6.8,14.8,15,14.8
		c8.3,0,14.9-6.6,14.9-14.8c0-8.4-6.6-14.9-14.9-14.9C82.5,210.2,75.7,216.8,75.7,225.2z"/>
	<path class="st0" d="M162.2,231.7c0,13.5-8,20.1-21.4,20.1c-13.5,0-21.3-6.5-21.3-20.1v-31.2h11v31.2c0,5.5,1.4,10.9,10.3,10.9
		c7.9,0,10.4-3.4,10.4-10.9v-31.2h11V231.7z"/>
	<path class="st0" d="M163.4,250.6l22.7-50h11.1l22.4,50H209l-4.9-11.1h-25.3l-5.3,11.1H163.4z M191.9,210l-8.4,19.4h16.6L191.9,210
		L191.9,210z"/>
	<path class="st0" d="M221.3,200.5h11v50.1h-11V200.5z"/>
</g>
<g>
	<path class="st0" d="M71,297.8h-2.1l6.6-43.2H78l6.9,43.2h-2.1l-6-39L71,297.8z"/>
	<path class="st0" d="M108.2,254.6h1.9v41.2h10.9v2h-12.7V254.6z"/>
	<path class="st0" d="M144.3,254.6h6.9c0.4,0,0.9,0.2,1.5,0.7c0.6,0.5,1.2,1.2,1.8,2.2c0.6,1,1.1,2.2,1.6,3.7
		c0.4,1.5,0.7,3.2,0.7,5.2c0,2.1-0.2,3.9-0.5,5.4c-0.3,1.6-0.8,2.8-1.3,3.8c-0.6,1-1.2,1.7-1.8,2.2c-0.7,0.5-1.3,0.7-1.9,0.7h-4.9
		v19.1h-1.9V254.6z M150.3,276.6c1,0,1.8-0.3,2.4-1c0.6-0.7,1-1.5,1.3-2.5c0.3-1,0.5-2.1,0.6-3.3c0.1-1.2,0.2-2.3,0.3-3.3
		c-0.1-1.1-0.2-2.3-0.4-3.5c-0.2-1.2-0.5-2.2-0.8-3.2c-0.4-1-0.9-1.7-1.5-2.4c-0.6-0.6-1.4-0.9-2.3-0.9h-3.7v20H150.3z"/>
	<path class="st0" d="M181.9,297.8H180v-43.2h1.9v19.9h8.8v-19.9h1.9v43.2h-1.9v-21.3h-8.8V297.8z"/>
	<path class="st0" d="M218,297.8h-2.1l6.6-43.2h2.5l6.9,43.2h-2.1l-6-39L218,297.8z"/>
</g>
<polygon class="st0" points="229.1,65.8 229.1,65.8 229.1,65.8 "/>
<polygon class="st0" points="120.3,88.8 107.7,127.5 94.7,166 85.3,161.5 75.9,156.9 60.2,142.8 46,127.4 66,134.3 86.2,141.3 
	98.1,122.9 "/>
<path class="st0" d="M231.1,11.6l-4.4-5.5l-20,23.7l-6.7,7.9l0,0l-25.2,17.5l6,1.6l10.9-1.8h0l-17,17.3l8.5,3.2l-3.3,0.7h0
	l-59.6,12.6l-21.3,77.5l-2.3,14.4l-2.6,14.4l7.5-12.7l7.5-12.7l1.1-12.2l20.9-16.4l1.7-1.4l-2.3,13.6l-4.4,25.8l13.2-22.8l13.2-22.8
	l-1.1-8.3v0l11.8-9.2l0,0l11.4,6.4l-0.6,5.5l7.3,25.1l7.3,25.1l-2.2-26l4.5-15.3l7,12.7l6.7,13.1L203,148l-0.4-9.8l0,0l18.2-27.1
	l4-21.8l2.8,0.9l1.5-24.4l0,0V48.4l2.7-1.7L231.1,11.6z M210.7,35.9l-3.5,1.3L208,33l5.4-4.5L210.7,35.9z"/>
</svg>
